<?xml version="1.0" standalone="no"?>
<!DOCTYPE svg PUBLIC "-//W3C//DTD SVG 20010904//EN"
 "http://www.w3.org/TR/2001/REC-SVG-20010904/DTD/svg10.dtd">
<svg version="1.0" xmlns="http://www.w3.org/2000/svg"
 width="512.000000pt" height="512.000000pt" viewBox="0 0 512.000000 512.000000"
 preserveAspectRatio="xMidYMid meet">
<metadata>
Created by potrace 1.14, written by Peter Selinger 2001-2017
</metadata>
<g transform="translate(0.000000,512.000000) scale(0.100000,-0.100000)"
fill="#000000" stroke="none">
<path d="M2915 5071 c-3 -5 -2 -12 3 -15 5 -3 9 1 9 9 0 17 -3 19 -12 6z"/>
<path d="M2906 5033 c-4 -5 -11 -8 -14 -8 -4 -1 -20 -4 -36 -8 -20 -6 -32 -4
-37 5 -7 10 -9 9 -9 -4 0 -11 -6 -16 -20 -13 -11 2 -20 0 -20 -6 0 -5 -12 -9
-26 -9 -17 0 -23 4 -19 13 4 6 -1 3 -9 -7 -9 -11 -19 -17 -22 -13 -4 4 -13 2
-21 -4 -10 -9 -17 -8 -30 2 -9 8 -14 9 -10 3 12 -20 -35 -25 -50 -6 -12 16
-12 15 -6 -2 5 -16 3 -18 -11 -13 -9 4 -15 3 -11 -2 7 -12 -70 -25 -86 -15 -8
4 -9 3 -5 -4 4 -7 1 -12 -9 -12 -10 0 -14 5 -10 13 4 6 0 4 -8 -5 -18 -23 -28
-23 -20 -1 5 12 1 11 -14 -4 -13 -13 -31 -20 -47 -19 -14 2 -26 -1 -26 -5 0
-5 -7 -9 -16 -9 -8 0 -13 3 -10 8 2 4 -11 7 -30 6 -19 -1 -34 3 -34 8 0 6 -6
5 -15 -2 -12 -10 -15 -10 -15 1 0 9 -3 10 -8 4 -6 -9 -27 -13 -90 -16 -12 -1
-25 -5 -28 -10 -8 -14 -26 -10 -19 4 4 6 1 5 -7 -4 -13 -15 -44 -31 -53 -26
-2 1 -11 -8 -20 -19 -14 -21 -42 -30 -110 -38 -16 -2 -41 -8 -55 -14 -16 -6
-27 -6 -31 0 -4 6 -8 6 -11 -2 -2 -6 -21 -13 -43 -15 -22 -1 -48 -6 -58 -10
-10 -4 -24 -2 -32 5 -13 11 -14 10 -9 -3 4 -11 0 -16 -13 -16 -10 0 -55 -8
-100 -18 -45 -11 -88 -18 -97 -17 -9 1 -16 -3 -16 -9 0 -5 -3 -8 -6 -5 -3 4
-19 2 -36 -3 -27 -7 -65 -14 -128 -24 -8 -1 -22 -5 -30 -8 -8 -3 -33 -8 -55
-11 -57 -8 -91 -15 -117 -25 -13 -5 -39 -8 -60 -7 -20 0 -34 -3 -30 -8 3 -5
-9 -6 -29 -3 -20 4 -29 3 -21 -2 11 -6 9 -10 -7 -14 -15 -4 -21 0 -22 11 0 16
-1 16 -7 1 -5 -12 -17 -16 -41 -14 -22 2 -29 0 -20 -6 10 -6 6 -9 -13 -10 -53
-3 -63 -4 -74 -11 -5 -4 -41 -12 -80 -18 -38 -6 -76 -14 -84 -17 -8 -3 -26 -7
-40 -9 -29 -4 -65 -12 -65 -14 0 -1 -8 -3 -18 -5 -14 -3 -16 0 -7 10 8 9 8 15
0 20 -6 4 -9 1 -8 -5 2 -6 -7 -19 -20 -27 -21 -15 -22 -15 -16 3 6 18 6 18 -8
0 -10 -12 -21 -17 -32 -13 -10 4 -15 3 -11 -3 5 -8 -15 -12 -50 -10 -3 1 -13
-6 -22 -15 -8 -9 -22 -14 -29 -11 -8 3 -14 -1 -14 -10 0 -11 -5 -14 -17 -10
-10 4 -15 4 -11 1 9 -10 -31 -47 -42 -40 -6 4 -10 1 -10 -4 0 -6 -13 -29 -29
-51 -22 -31 -31 -37 -42 -27 -11 10 -11 9 1 -6 11 -15 10 -22 -10 -49 -12 -17
-17 -27 -11 -23 8 5 7 -3 -3 -23 -8 -16 -12 -32 -9 -35 3 -4 1 -13 -6 -21 -9
-11 -9 -15 1 -19 11 -4 10 -6 0 -6 -7 -1 -10 -6 -6 -12 3 -6 8 -25 9 -42 2
-18 7 -45 11 -62 4 -16 7 -44 8 -62 1 -17 4 -29 9 -26 4 2 7 -7 7 -21 0 -33 0
-30 11 -68 5 -18 12 -48 15 -67 3 -18 8 -42 10 -52 2 -11 6 -27 8 -38 2 -10 7
-34 10 -52 3 -19 8 -45 11 -59 3 -14 7 -36 10 -49 2 -13 7 -26 10 -29 2 -3 -1
-12 -8 -20 -10 -13 -9 -14 2 -8 11 7 13 1 9 -27 -2 -20 -1 -34 3 -31 4 2 9 -5
12 -16 3 -11 1 -20 -5 -20 -5 0 -2 -8 8 -17 15 -16 15 -17 -2 -24 -15 -6 -16
-8 -3 -8 20 -1 31 -45 15 -62 -8 -9 -8 -10 2 -5 8 5 12 0 12 -13 0 -10 -3 -21
-7 -24 -5 -2 -2 -2 6 0 9 2 12 -4 9 -22 -3 -13 -2 -26 3 -27 4 -2 10 -21 12
-43 2 -22 7 -47 11 -55 3 -8 8 -29 10 -46 1 -17 6 -36 10 -42 3 -6 2 -13 -4
-17 -5 -3 -10 -12 -10 -18 0 -7 4 -6 10 3 10 15 13 0 14 -72 0 -15 3 -25 7
-23 7 5 22 -64 23 -107 1 -16 5 -28 9 -28 5 0 5 -9 2 -20 -4 -11 -2 -20 4 -20
6 0 11 -7 11 -16 0 -8 -4 -12 -10 -9 -5 3 -10 1 -10 -4 0 -6 8 -11 18 -12 9 0
12 -3 5 -5 -8 -4 -8 -14 3 -39 8 -19 15 -57 16 -85 2 -27 6 -50 9 -50 4 0 9
-15 12 -32 3 -18 7 -42 10 -53 2 -11 -3 -29 -12 -40 -15 -18 -15 -19 1 -7 14
11 18 6 30 -50 8 -35 11 -67 6 -72 -4 -6 -8 -15 -8 -20 0 -6 5 -4 10 4 9 13
10 13 11 0 0 -8 2 -22 4 -30 3 -17 11 -59 21 -114 6 -32 5 -38 -7 -32 -8 4 -5
0 5 -8 11 -9 16 -16 12 -16 -5 0 -4 -6 3 -13 8 -10 7 -17 -2 -27 -7 -8 -8 -11
-1 -7 8 5 14 -10 19 -41 4 -26 7 -49 7 -52 0 -3 4 -11 10 -18 8 -8 7 -12 -3
-12 -9 0 -10 -3 -4 -8 6 -4 11 -13 13 -21 10 -47 24 -121 28 -150 2 -19 6 -37
8 -40 6 -10 19 -92 20 -124 0 -15 3 -27 6 -27 3 0 6 -10 6 -23 1 -12 4 -29 5
-37 3 -9 -2 -14 -11 -12 -8 2 -11 0 -7 -5 5 -4 14 -8 20 -8 7 0 13 -10 15 -22
2 -14 -2 -23 -9 -23 -7 0 -4 -6 6 -14 17 -12 17 -16 5 -30 -11 -14 -11 -17 0
-14 19 4 25 -32 8 -43 -10 -7 -10 -9 3 -9 16 0 29 -54 33 -137 0 -18 4 -33 7
-33 13 0 17 -39 5 -51 -8 -9 -8 -10 3 -4 11 6 13 4 8 -8 -4 -10 -2 -17 5 -17
6 0 6 -6 -3 -17 -7 -10 -9 -14 -4 -10 11 10 45 -138 39 -171 -3 -15 -1 -21 6
-17 5 3 10 1 10 -4 0 -6 -6 -11 -12 -11 -8 0 -6 -5 4 -10 11 -7 15 -19 12 -35
-2 -14 0 -25 6 -25 5 0 10 -5 10 -11 0 -5 -4 -8 -8 -5 -4 2 -8 -4 -8 -14 0
-10 3 -17 7 -14 12 7 17 -20 7 -40 -7 -12 -7 -16 0 -12 13 8 26 -29 16 -46 -4
-7 -4 -10 1 -6 4 4 17 -11 28 -34 11 -22 38 -58 59 -79 22 -22 36 -39 33 -39
-4 0 -2 -6 4 -14 7 -8 19 -12 29 -9 9 2 26 -4 37 -14 11 -10 31 -20 45 -21 14
-2 30 -7 35 -11 6 -4 34 -7 62 -6 29 0 53 -4 53 -9 0 -5 6 -4 13 2 6 5 34 13
62 17 27 3 55 11 61 16 8 7 15 6 19 -2 6 -8 10 -7 16 2 7 11 9 10 9 -3 0 -9 5
-20 11 -24 7 -4 9 0 5 14 -8 23 19 37 48 26 9 -3 16 -1 16 4 0 6 9 9 20 7 11
-2 20 -1 20 3 0 4 10 7 23 8 12 0 30 4 40 8 11 5 17 4 17 -4 0 -6 -4 -9 -8 -6
-4 2 -8 -4 -9 -14 -2 -25 15 -36 30 -21 9 9 9 14 0 19 -16 10 -1 32 26 37 12
2 32 7 44 11 12 3 19 3 15 -1 -4 -5 -3 -14 3 -22 8 -9 8 -13 1 -13 -6 0 -14 5
-17 10 -5 9 -20 9 -64 1 -3 -1 0 -6 7 -13 7 -7 12 -20 12 -29 0 -22 16 -33 26
-18 4 7 3 9 -3 6 -6 -4 -13 4 -16 19 -3 16 1 28 9 31 16 6 34 -4 34 -19 0 -7
-6 -6 -15 2 -19 15 -20 4 -2 -15 11 -11 16 -10 25 6 10 16 15 17 31 7 11 -7
18 -15 15 -19 -2 -4 0 -10 5 -13 23 -14 2 28 -25 49 l-29 23 28 11 c16 6 32 9
37 6 5 -3 11 1 13 7 4 10 6 9 6 -1 1 -10 4 -11 15 -2 7 6 26 13 42 15 16 3 40
8 54 11 14 4 35 7 48 8 12 1 22 6 22 11 1 6 8 -1 16 -17 14 -26 12 -47 -5 -47
-5 0 -7 11 -6 25 2 14 -1 23 -5 20 -5 -3 -7 -13 -4 -23 4 -10 2 -13 -3 -7 -12
15 -36 18 -27 4 4 -8 3 -9 -5 -5 -6 4 -9 12 -6 17 4 5 2 9 -2 9 -17 0 -34 -40
-24 -58 10 -16 10 -16 11 1 0 10 4 16 9 12 5 -3 12 -1 16 5 3 5 11 10 17 10 6
0 6 -6 -2 -15 -10 -13 -11 -18 -1 -28 10 -9 11 -8 6 4 -5 12 0 16 16 15 12 0
24 -7 27 -14 2 -8 -2 -10 -15 -6 -14 6 -15 4 -6 -6 6 -7 16 -9 22 -6 15 9 14
36 -1 36 -21 0 2 14 30 18 26 3 26 3 7 -12 -11 -8 -17 -18 -12 -22 4 -4 7 -2
7 5 0 7 5 9 10 6 6 -3 11 -1 11 4 1 6 3 16 4 21 1 6 3 13 4 18 1 4 6 0 11 -8
6 -10 10 -11 10 -2 0 20 16 14 17 -7 1 -13 -3 -18 -12 -15 -14 6 -41 -33 -30
-44 3 -3 8 4 12 16 6 25 23 30 23 8 0 -8 5 -18 11 -22 8 -4 9 1 4 17 -6 19 -5
22 5 12 10 -9 18 -9 33 -1 17 9 24 7 38 -11 14 -17 18 -18 23 -6 3 8 11 13 18
11 7 -1 10 -1 5 2 -4 2 -12 13 -19 25 -11 21 -10 21 9 4 11 -9 25 -17 31 -17
7 0 11 -5 9 -12 -1 -6 7 -13 18 -15 15 -2 16 -1 5 5 -8 4 -16 16 -18 27 -3 20
-2 20 13 1 15 -20 20 -12 16 22 -2 10 2 10 18 0 17 -10 17 -13 5 -23 -16 -11
-9 -49 7 -39 5 3 9 0 9 -7 0 -8 6 -6 18 5 18 15 21 15 47 -6 16 -13 26 -18 23
-12 -4 5 2 15 13 22 10 7 19 8 19 3 0 -6 -5 -13 -10 -16 -6 -3 -10 -11 -10
-18 0 -6 6 -3 13 8 10 12 16 14 21 7 4 -7 2 -12 -3 -12 -6 0 -11 -5 -11 -11 0
-8 6 -7 17 2 15 12 16 12 11 -3 -9 -22 16 -56 27 -38 5 8 4 11 -3 6 -14 -9
-21 15 -10 37 5 9 6 22 2 28 -4 7 0 9 14 5 11 -4 23 -2 27 4 3 5 14 10 23 10
13 0 13 -2 -3 -14 -16 -12 -17 -16 -6 -30 12 -14 15 -14 30 6 l18 21 20 -20
c20 -20 20 -20 46 -1 15 11 27 15 27 9 0 -6 -9 -16 -20 -23 -26 -17 -25 -22 8
-37 15 -7 24 -10 20 -6 -4 4 -2 17 4 28 10 20 11 20 25 -6 12 -23 17 -26 33
-17 11 6 20 15 20 21 0 6 4 8 10 4 5 -3 7 -12 4 -19 -3 -7 2 -19 11 -26 14
-11 16 -11 13 1 -2 8 3 13 10 11 8 -1 11 2 8 7 -4 5 4 17 16 25 31 22 48 19
21 -3 -13 -11 -23 -23 -23 -27 0 -4 9 1 20 11 25 22 26 9 3 -19 -18 -20 -18
-20 9 0 19 14 23 22 16 32 -7 8 -7 12 0 12 6 0 17 -9 25 -20 12 -17 16 -18 26
-7 6 8 8 17 4 20 -3 4 -1 7 5 7 13 0 16 -21 5 -35 -5 -6 -4 -7 1 -3 17 14 29
8 16 -7 -7 -8 -8 -15 -4 -15 5 0 15 9 22 20 7 11 18 20 24 20 9 0 9 -3 1 -11
-6 -6 -9 -18 -6 -27 4 -10 2 -13 -5 -8 -6 3 -13 2 -16 -3 -4 -5 2 -8 11 -7 10
2 18 9 18 17 1 23 15 40 32 37 9 -2 18 4 20 12 4 12 3 12 -5 2 -7 -11 -10 -11
-15 2 -4 9 -12 16 -19 16 -10 0 -10 -2 1 -9 9 -6 10 -11 2 -15 -6 -4 -11 -2
-11 5 0 8 -6 6 -18 -4 -18 -17 -32 -14 -32 6 0 6 3 7 7 4 3 -4 17 0 29 8 17
11 30 12 49 5 26 -10 33 -34 15 -45 -8 -5 -7 -12 2 -23 11 -13 10 -15 -5 -9
-21 8 -35 -19 -19 -35 8 -8 9 -5 6 8 -4 15 0 20 16 20 15 0 20 -5 17 -18 -3
-10 -1 -16 4 -12 14 8 11 25 -7 46 -15 16 -15 18 -1 24 9 3 13 12 10 20 -7 18
5 18 48 0 19 -7 40 -11 47 -9 6 3 12 0 12 -6 0 -9 -44 -6 -60 4 -3 2 -7 -5 -7
-16 -2 -21 -3 -20 46 -22 21 -1 35 3 37 11 1 7 0 8 -3 2 -7 -14 -33 -13 -33 2
0 6 3 8 7 5 3 -4 11 -3 17 2 6 5 20 5 30 2 17 -7 17 -9 -9 -29 -15 -12 -26
-24 -24 -27 3 -2 19 9 37 26 18 16 32 26 32 22 0 -5 9 -14 20 -20 17 -11 19
-10 14 5 -3 9 2 5 11 -10 8 -16 20 -28 26 -28 6 0 3 7 -6 16 -9 9 -13 19 -10
22 3 4 9 2 13 -3 7 -10 32 -16 65 -16 9 0 17 -4 17 -10 0 -5 -4 -9 -10 -9 -5
0 -10 -5 -10 -10 0 -6 10 -4 23 4 19 13 27 13 47 3 14 -7 35 -13 47 -14 12 -1
42 -9 67 -17 26 -9 55 -16 65 -16 27 0 33 -12 14 -32 -9 -10 -13 -18 -10 -18
3 0 15 9 26 21 l19 21 68 -22 c38 -12 77 -27 88 -32 14 -7 16 -6 10 4 -6 10
-4 10 9 -1 9 -7 17 -10 17 -7 0 4 10 2 21 -5 15 -8 19 -8 15 0 -5 7 1 10 16 7
13 -2 22 -9 20 -16 -1 -6 2 -9 8 -5 6 3 8 10 5 15 -10 15 40 16 53 0 10 -13
11 -13 6 3 -3 9 -2 17 2 18 5 0 18 3 29 6 11 2 28 5 37 6 9 1 15 3 13 6 -3 2
5 11 17 19 19 14 22 13 34 -3 8 -10 14 -14 14 -9 0 6 -4 14 -10 20 -6 6 6 24
35 51 24 22 47 38 50 34 4 -3 5 -1 3 4 -3 9 4 29 45 125 5 14 11 32 11 40 4
46 19 110 27 110 5 0 6 -8 3 -17 -5 -15 -4 -15 6 1 9 13 9 20 2 25 -8 5 -7 18
2 44 7 20 17 34 21 30 5 -5 3 0 -4 10 -8 10 -9 17 -3 17 6 0 9 8 7 18 -1 9 2
23 8 30 5 6 6 12 2 12 -4 0 -3 6 2 13 5 6 10 23 11 36 0 13 5 27 9 30 4 3 9
19 10 35 1 16 8 33 15 38 9 5 10 8 1 8 -9 0 -9 8 -3 28 5 15 16 53 25 85 13
47 19 58 33 53 15 -5 15 -4 2 7 -17 14 -24 37 -12 37 5 0 9 7 10 15 1 8 3 22
4 30 1 8 8 15 17 15 14 0 14 2 1 10 -13 9 -13 11 0 20 13 9 13 10 0 10 -10 1
-7 7 10 22 17 14 19 19 7 15 -11 -4 -16 -3 -12 3 4 6 9 23 11 38 8 41 29 77
43 74 7 -1 10 2 6 8 -3 6 -11 8 -16 4 -11 -7 -7 20 15 90 8 27 13 53 10 57 -2
4 0 10 6 14 6 4 8 10 5 15 -3 4 2 13 10 20 8 7 15 18 15 24 0 6 -5 4 -10 -4
-5 -8 -10 -10 -10 -5 0 6 5 16 12 23 7 7 9 12 5 12 -3 0 0 18 8 40 8 22 14 41
13 43 -5 10 27 107 35 107 7 0 5 5 -3 10 -9 6 -11 10 -3 10 7 0 10 7 7 15 -4
8 -2 15 3 15 5 0 9 10 9 23 -1 15 4 21 14 19 12 -3 13 -1 3 9 -18 18 -16 29 5
29 13 0 14 2 3 9 -7 5 -11 13 -8 18 3 5 8 20 11 34 16 78 50 205 55 209 3 3 7
12 7 20 5 48 17 85 32 97 9 8 11 11 3 7 -9 -5 -12 -1 -7 12 9 31 27 108 28
122 1 6 5 12 9 12 4 0 6 8 4 18 -1 9 7 25 19 35 16 13 17 16 4 11 -23 -8 -23
12 0 25 9 6 12 11 5 11 -11 0 -8 20 14 80 3 8 7 28 9 44 1 16 6 32 11 35 4 3
10 22 11 41 2 19 7 37 11 40 4 3 7 13 8 23 2 45 4 49 18 44 8 -4 17 -2 20 4 4
5 1 8 -7 7 -14 -3 -15 51 -2 81 4 9 9 25 11 36 4 22 23 36 37 28 5 -3 6 -1 2
6 -4 6 -11 9 -16 6 -5 -3 -8 4 -7 15 1 11 5 20 10 20 4 0 5 5 2 10 -3 6 -3 15
1 22 4 7 9 23 10 36 3 29 23 54 37 45 6 -3 7 -1 3 6 -4 6 -12 9 -17 5 -11 -6
-2 58 9 66 4 3 7 12 7 20 -1 8 8 26 19 40 12 13 14 19 5 12 -13 -10 -15 -8
-11 18 2 17 9 30 15 30 6 0 7 3 4 7 -4 3 -1 13 6 21 10 13 9 14 -3 7 -13 -8
-13 -7 -1 8 7 9 11 17 8 17 -4 0 0 18 8 40 8 22 14 41 13 43 -4 8 25 106 31
102 4 -2 7 6 6 18 -1 12 3 28 9 36 8 11 8 13 -1 7 -10 -6 -11 -1 -2 21 25 65
37 132 37 210 0 45 4 87 8 94 4 7 3 9 -4 5 -13 -8 -21 5 -24 37 -1 14 -7 23
-12 20 -5 -4 -7 1 -3 10 4 10 2 16 -6 14 -7 -1 -11 6 -11 15 1 10 -2 15 -7 12
-5 -3 -9 -1 -9 3 0 5 -12 22 -27 38 -16 16 -28 33 -28 36 0 4 -4 11 -9 16 -5
5 -6 3 -2 -4 10 -17 -2 -16 -19 1 -8 7 -11 17 -7 21 4 5 2 6 -3 2 -13 -7 -88
27 -79 35 3 4 -3 4 -15 1 -13 -3 -21 -1 -21 6 0 7 -4 10 -10 6 -15 -9 -61 6
-53 18 3 5 1 7 -5 3 -13 -8 -112 13 -112 24 0 4 -8 7 -17 7 -39 -1 -93 15 -86
27 4 7 1 6 -9 -1 -8 -7 -18 -9 -22 -5 -4 4 -12 8 -17 8 -5 1 -13 2 -19 3 -5 0
-10 6 -10 12 0 5 5 7 12 3 6 -4 8 -3 5 4 -7 11 -20 10 -51 -3 -12 -5 -21 -3
-26 6 -5 7 -12 10 -15 7 -4 -4 -19 -2 -34 4 -14 5 -39 12 -56 15 -16 3 -34 11
-38 19 -7 12 -12 13 -23 3 -10 -8 -14 -8 -14 -1 0 7 -7 9 -17 5 -10 -4 -14 -2
-10 4 4 6 -3 8 -20 5 -18 -3 -24 -1 -19 6 5 8 1 10 -9 6 -8 -4 -21 -1 -29 5
-7 6 -15 9 -17 6 -8 -7 -83 16 -91 29 -6 8 -8 7 -8 -2 0 -7 -5 -10 -10 -7 -6
4 -7 12 -4 18 5 9 4 9 -6 0 -15 -14 -43 -5 -33 11 4 6 -1 5 -10 -3 -12 -9 -17
-10 -17 -2 0 7 -4 9 -10 6 -5 -3 -16 -3 -22 2 -7 4 -22 9 -33 10 -43 7 -48 12
-34 31 10 13 8 12 -9 -3 -14 -11 -26 -15 -30 -10 -4 6 -16 11 -27 12 -43 5
-60 11 -58 20 1 5 -8 10 -20 10 -17 2 -19 0 -7 -7 24 -16 2 -11 -31 5 -17 9
-27 21 -23 27 4 7 3 8 -5 4 -6 -4 -8 -12 -5 -18 4 -6 -2 -6 -15 1 -11 7 -21 9
-21 5 0 -3 -11 1 -25 10 -16 11 -25 12 -25 5 0 -8 -5 -8 -15 1 -9 7 -13 20
-10 29 4 13 2 12 -9 -1 -18 -24 -36 -23 -31 2 2 12 0 18 -6 15 -5 -4 -7 -10
-4 -15 3 -5 1 -11 -5 -15 -5 -3 -10 -1 -10 4 0 6 -3 10 -7 10 -23 -4 -43 2
-38 11 4 6 -3 9 -16 7 -15 -1 -23 4 -25 18 -16 107 -52 212 -76 223 -5 2 -8 8
-8 13 0 6 4 7 10 4 6 -3 7 1 3 10 -4 11 -8 13 -13 6 -4 -8 -16 0 -32 19 -15
18 -30 32 -35 33 -4 1 -6 7 -5 12 2 6 0 7 -3 3 -4 -4 -26 3 -49 14 -22 12 -50
23 -61 25 -11 2 -32 8 -48 14 -15 7 -45 9 -67 6 -23 -3 -38 -1 -34 4 6 11 0
12 -10 2z m-696 -4542 c8 -2 22 -4 30 -4 8 0 24 -6 35 -13 23 -16 39 -18 30
-4 -3 6 1 7 10 4 14 -6 14 -8 -2 -20 -17 -13 -17 -14 0 -8 10 4 17 1 17 -6 0
-6 5 -8 10 -5 6 4 8 10 6 14 -3 4 1 8 9 8 8 0 13 -5 12 -10 -1 -5 4 -12 11
-14 6 -3 10 1 9 9 -2 7 -2 10 0 5 3 -4 9 -5 14 -1 5 3 9 1 9 -4 0 -6 10 -8 23
-6 20 4 20 4 2 -4 -11 -5 -27 -7 -35 -4 -12 4 -13 2 -2 -9 6 -7 12 -18 12 -23
0 -6 -5 -4 -10 4 -9 13 -10 13 -10 0 0 -13 -1 -13 -11 0 -9 13 -10 13 -6 0 2
-8 12 -15 23 -16 10 0 27 -4 38 -9 21 -9 36 8 31 37 -2 10 0 16 5 13 11 -7 47
-16 67 -17 7 -1 10 -5 7 -10 -3 -5 6 -7 20 -4 14 3 26 0 26 -5 0 -6 5 -7 10
-4 6 3 10 0 10 -7 0 -9 3 -9 10 2 7 11 10 12 10 2 0 -9 7 -11 20 -7 14 4 22 1
26 -10 6 -13 8 -14 15 -3 7 10 9 11 9 0 0 -7 5 -10 10 -7 6 4 17 1 25 -5 12
-10 15 -10 15 0 0 9 4 9 16 -1 9 -8 22 -14 28 -15 6 0 19 -2 29 -2 10 -1 15
-6 12 -12 -3 -5 -1 -10 4 -10 6 0 11 6 11 13 0 8 3 9 8 1 4 -6 15 -10 26 -8
14 2 16 0 7 -9 -7 -7 -24 -12 -39 -12 -16 0 -26 -5 -24 -12 3 -19 -13 -16 -33
7 -24 27 -53 22 -88 -15 -17 -18 -27 -23 -23 -13 3 10 1 20 -4 23 -6 4 -10 11
-10 17 0 7 6 6 15 -2 12 -10 18 -10 30 0 8 7 15 18 14 24 0 7 -2 6 -6 -2 -2
-6 -9 -9 -14 -6 -6 3 -2 12 8 20 10 7 13 14 6 14 -6 0 -18 -8 -25 -17 -15 -20
-38 -28 -38 -13 0 5 6 10 14 10 8 0 18 4 21 10 3 6 -1 7 -9 4 -11 -4 -16 0
-16 10 0 9 -4 16 -9 16 -6 0 -8 -8 -6 -18 2 -12 -3 -18 -15 -18 -10 0 -17 3
-15 6 2 4 -2 7 -10 7 -8 0 -12 -4 -9 -9 3 -5 -9 0 -28 12 -38 23 -48 25 -48 8
0 -6 3 -8 6 -5 9 8 62 -23 69 -40 2 -8 1 -11 -4 -8 -5 3 -17 -5 -25 -17 -9
-12 -19 -18 -23 -14 -5 4 2 16 14 25 16 14 19 21 11 29 -9 9 -15 9 -25 0 -11
-9 -12 -7 -7 7 5 13 4 16 -4 11 -7 -4 -12 -14 -12 -22 0 -18 -5 -18 -34 1 -22
14 -25 14 -40 -1 -9 -9 -20 -14 -23 -10 -4 3 2 12 12 20 18 13 18 14 -2 25
-17 8 -22 8 -27 -5 -4 -9 -13 -14 -21 -10 -8 3 -22 3 -31 -1 -12 -4 -13 -7 -3
-14 8 -4 10 -11 7 -15 -4 -4 -15 7 -24 23 -17 29 -18 29 -36 11 -10 -10 -23
-16 -28 -13 -17 10 -11 24 8 20 10 -2 24 6 31 17 10 16 10 19 -1 12 -10 -6
-10 -4 1 9 9 11 10 17 2 17 -6 0 -11 -6 -11 -12 0 -9 -4 -8 -10 2 -6 10 -10
11 -10 3 0 -7 -5 -13 -11 -13 -5 0 -7 5 -3 12 5 7 3 8 -6 3 -9 -6 -11 -4 -5 6
7 12 5 12 -6 1 -12 -11 -12 -14 1 -23 13 -9 13 -10 0 -6 -8 2 -14 11 -14 20 1
15 -20 17 -33 2 -4 -4 -3 -5 3 -2 7 4 15 0 18 -8 3 -9 -1 -18 -9 -21 -8 -4
-12 -10 -9 -16 3 -5 11 -2 17 6 9 11 16 13 27 6 8 -5 12 -10 8 -10 -5 0 -10 1
-11 3 -2 1 -11 -4 -19 -11 -15 -12 -48 -7 -48 8 0 4 8 11 17 15 16 6 15 8 -6
25 -31 22 -58 16 -39 -9 11 -14 11 -14 -3 -4 -11 9 -18 10 -27 1 -8 -8 -18 -5
-37 11 -15 11 -32 18 -37 14 -6 -3 -8 0 -6 8 3 8 12 12 19 10 8 -2 20 -4 27
-4 7 0 10 -7 8 -14 -3 -8 -1 -11 4 -8 6 3 10 1 10 -6 0 -7 3 -10 6 -6 9 8 -11
40 -27 43 -8 2 -26 6 -41 9 -24 5 -28 2 -25 -17 1 -16 -3 -23 -15 -23 -9 0
-20 -3 -23 -7 -4 -3 5 -5 19 -4 15 2 29 -1 32 -5 3 -5 11 -9 17 -9 8 0 8 3 -2
9 -9 6 -10 11 -2 15 10 6 15 -6 12 -26 0 -5 4 -8 10 -8 5 0 7 -5 4 -11 -5 -7
-13 -5 -25 6 -14 13 -23 14 -39 6 -16 -9 -22 -8 -29 6 -10 22 -10 33 3 53 7
11 3 11 -18 -3 -15 -9 -27 -15 -27 -11 0 4 -7 1 -15 -6 -8 -6 -19 -9 -25 -5
-5 3 -10 0 -10 -7 0 -10 -3 -9 -9 2 -6 8 -7 18 -5 22 3 4 0 8 -6 8 -6 0 -8 5
-5 11 5 6 13 3 22 -10 8 -12 19 -21 25 -21 7 0 3 6 -8 14 -10 8 -16 18 -12 22
4 4 14 2 22 -5 18 -16 38 -11 54 14 10 14 12 15 8 3 -3 -12 -1 -15 9 -12 8 3
13 11 12 17 -1 5 10 11 25 12 20 1 25 -2 20 -14 -5 -14 -3 -14 11 -2 9 7 14
17 12 22 -3 4 4 6 15 4 11 -2 20 0 20 5 0 5 14 8 30 6 17 -2 33 1 36 6 4 6 9
6 13 2 3 -5 13 -11 21 -13z m-250 -41 c-8 -5 -18 -6 -24 -3 -5 4 -1 10 10 13
24 9 34 2 14 -10z m490 -50 c0 -11 -4 -20 -9 -20 -14 0 -23 18 -16 30 10 17
25 11 25 -10z m-646 -8 c3 -5 -1 -9 -9 -9 -8 0 -12 4 -9 9 3 4 7 8 9 8 2 0 6
-4 9 -8z m495 -23 c-7 -4 -17 -5 -22 -2 -5 3 -3 9 4 14 7 4 17 5 22 2 5 -3 3
-9 -4 -14z m-1429 -9 c0 -5 -2 -10 -4 -10 -3 0 -8 5 -11 10 -3 6 -1 10 4 10 6
0 11 -4 11 -10z m625 -30 c3 -5 1 -10 -4 -10 -6 0 -11 5 -11 10 0 6 2 10 4 10
3 0 8 -4 11 -10z m1159 -16 c3 -8 3 -20 0 -28 -6 -16 -33 -30 -35 -18 -8 49
-6 58 11 59 10 1 21 -5 24 -13z m406 -68 c0 -11 -19 -15 -25 -6 -3 5 1 10 9
10 9 0 16 -2 16 -4z"/>
<path d="M2114 478 c-3 -4 -9 -6 -14 -3 -4 3 -13 -2 -20 -10 -9 -11 -9 -15 -1
-16 6 -1 16 -2 22 -3 6 0 17 -9 24 -19 11 -15 17 -16 34 -8 14 8 22 8 26 1 4
-7 11 -8 18 -2 10 8 61 9 77 2 3 -2 14 -4 25 -5 11 -1 26 -3 33 -3 6 -1 12 -7
12 -13 0 -5 -4 -8 -9 -4 -6 3 -8 -4 -6 -16 5 -24 15 -38 15 -21 0 7 5 12 11
12 5 0 7 -5 3 -12 -4 -7 -3 -8 4 -4 9 5 9 13 2 27 -6 11 -8 24 -5 29 11 17 -5
32 -20 20 -9 -7 -15 -8 -19 -1 -4 6 -13 8 -21 4 -9 -3 -15 1 -15 9 0 16 -37
41 -50 33 -6 -4 -16 -3 -22 2 -18 11 -98 12 -104 1z m58 -18 c-4 -12 -1 -11
15 3 17 15 22 15 32 4 8 -11 7 -18 -8 -31 -13 -11 -21 -14 -26 -7 -4 8 -12 8
-24 1 -14 -7 -23 -5 -36 10 -22 24 -15 35 23 35 23 1 28 -3 24 -15z m104 -17
c11 -18 12 -24 3 -17 -8 6 -22 10 -31 9 -14 -3 -15 0 -5 16 6 10 12 19 13 19
1 0 10 -12 20 -27z"/>
<path d="M2121 464 c-2 -19 23 -34 39 -24 11 7 12 10 2 10 -8 0 -10 5 -6 13 6
9 4 9 -8 -1 -13 -10 -17 -10 -21 0 -3 8 -6 8 -6 2z"/>
<path d="M2191 456 c-7 -8 -8 -17 -3 -20 6 -3 15 1 21 8 7 8 8 17 3 20 -6 3
-15 -1 -21 -8z"/>
<path d="M2015 462 c3 -3 -1 -15 -9 -27 -12 -19 -12 -21 6 -22 14 -1 18 3 14
14 -4 8 -2 21 4 28 7 8 5 12 -5 12 -8 0 -13 -3 -10 -5z"/>
<path d="M2480 401 c8 -5 18 -7 24 -4 5 3 6 1 2 -6 -4 -6 -12 -8 -18 -5 -15
10 -29 -18 -16 -33 6 -7 14 -10 20 -7 5 3 4 12 -3 20 -19 23 -2 16 22 -8 12
-13 19 -17 15 -10 -4 7 -3 19 4 27 13 16 3 24 -38 31 -19 3 -23 2 -12 -5z"/>
<path d="M2556 381 c-6 -10 6 -15 27 -12 4 0 7 -2 7 -7 0 -4 14 -8 31 -8 32
-2 34 4 3 10 -41 8 -49 11 -55 20 -4 4 -10 3 -13 -3z"/>
<path d="M2403 373 c-15 -5 -17 -23 -4 -23 5 0 11 7 15 15 3 8 4 15 3 14 -1 0
-8 -3 -14 -6z"/>
<path d="M2737 322 c5 -11 8 -11 13 -1 6 9 15 7 35 -9 15 -12 32 -19 37 -16
13 8 -13 36 -28 30 -7 -3 -16 -1 -19 4 -9 15 -43 8 -38 -8z m78 -12 c3 -6 -1
-7 -9 -4 -18 7 -21 14 -7 14 6 0 13 -4 16 -10z"/>
<path d="M2633 299 c-2 -23 3 -25 10 -4 4 8 3 16 -1 19 -4 3 -9 -4 -9 -15z"/>
<path d="M2495 4960 c-3 -5 -1 -10 4 -10 6 0 11 5 11 10 0 6 -2 10 -4 10 -3 0
-8 -4 -11 -10z"/>
<path d="M2075 4951 c-3 -5 -2 -12 3 -15 5 -3 9 1 9 9 0 17 -3 19 -12 6z"/>
<path d="M2255 4940 c-3 -5 -1 -10 4 -10 6 0 11 5 11 10 0 6 -2 10 -4 10 -3 0
-8 -4 -11 -10z"/>
<path d="M1945 4860 c-3 -6 1 -7 9 -4 18 7 21 14 7 14 -6 0 -13 -4 -16 -10z"/>
<path d="M1896 4833 c-6 -14 -5 -15 5 -6 7 7 10 15 7 18 -3 3 -9 -2 -12 -12z"/>
<path d="M800 4640 c-9 -6 -10 -10 -3 -10 6 0 15 5 18 10 8 12 4 12 -15 0z"/>
<path d="M733 4625 c0 -8 4 -12 9 -9 5 3 6 10 3 15 -9 13 -12 11 -12 -6z"/>
<path d="M3396 4618 c3 -5 10 -6 15 -3 13 9 11 12 -6 12 -8 0 -12 -4 -9 -9z"/>
<path d="M4010 4460 c0 -5 5 -10 11 -10 5 0 7 5 4 10 -3 6 -8 10 -11 10 -2 0
-4 -4 -4 -10z"/>
<path d="M4113 4435 c0 -8 4 -12 9 -9 5 3 6 10 3 15 -9 13 -12 11 -12 -6z"/>
<path d="M4220 4420 c-9 -6 -10 -10 -3 -10 6 0 15 5 18 10 8 12 4 12 -15 0z"/>
<path d="M4946 4202 c-3 -5 1 -9 9 -9 8 0 12 4 9 9 -3 4 -7 8 -9 8 -2 0 -6 -4
-9 -8z"/>
<path d="M55 3820 c3 -5 8 -10 11 -10 2 0 4 5 4 10 0 6 -5 10 -11 10 -5 0 -7
-4 -4 -10z"/>
<path d="M67 3639 c7 -7 15 -10 18 -7 3 3 -2 9 -12 12 -14 6 -15 5 -6 -5z"/>
<path d="M80 3606 c0 -2 8 -10 18 -17 15 -13 16 -12 3 4 -13 16 -21 21 -21 13z"/>
<path d="M5016 3382 c-3 -5 1 -9 9 -9 8 0 12 4 9 9 -3 4 -7 8 -9 8 -2 0 -6 -4
-9 -8z"/>
<path d="M155 3311 c-3 -5 -2 -12 3 -15 5 -3 9 1 9 9 0 17 -3 19 -12 6z"/>
<path d="M177 3155 c-4 -8 -3 -16 1 -19 4 -3 9 4 9 15 2 23 -3 25 -10 4z"/>
<path d="M4800 2640 c-9 -6 -10 -10 -3 -10 6 0 15 5 18 10 8 12 4 12 -15 0z"/>
<path d="M4750 2416 c0 -2 8 -10 18 -17 15 -13 16 -12 3 4 -13 16 -21 21 -21
13z"/>
<path d="M350 2280 c0 -5 5 -10 11 -10 5 0 7 5 4 10 -3 6 -8 10 -11 10 -2 0
-4 -4 -4 -10z"/>
<path d="M4676 2033 c-6 -14 -5 -15 5 -6 7 7 10 15 7 18 -3 3 -9 -2 -12 -12z"/>
<path d="M4630 1959 c0 -5 5 -7 10 -4 6 3 10 8 10 11 0 2 -4 4 -10 4 -5 0 -10
-5 -10 -11z"/>
<path d="M4630 1921 c0 -6 4 -12 8 -15 5 -3 9 1 9 9 0 8 -4 15 -9 15 -4 0 -8
-4 -8 -9z"/>
<path d="M4595 1809 c-4 -6 -5 -12 -2 -15 2 -3 7 2 10 11 7 17 1 20 -8 4z"/>
<path d="M455 1740 c-3 -5 -1 -10 4 -10 6 0 11 5 11 10 0 6 -2 10 -4 10 -3 0
-8 -4 -11 -10z"/>
<path d="M499 1578 c-5 -18 -6 -38 -1 -34 7 8 12 36 6 36 -2 0 -4 -1 -5 -2z"/>
<path d="M570 1086 c0 -2 7 -7 16 -10 8 -3 12 -2 9 4 -6 10 -25 14 -25 6z"/>
<path d="M616 913 c-6 -14 -5 -15 5 -6 7 7 10 15 7 18 -3 3 -9 -2 -12 -12z"/>
<path d="M673 565 c0 -8 4 -15 9 -15 4 0 8 4 8 9 0 6 -4 12 -8 15 -5 3 -9 -1
-9 -9z"/>
<path d="M4255 539 c-4 -6 -4 -13 -1 -16 3 -4 6 -1 6 6 0 7 5 9 12 5 7 -4 8
-3 4 4 -9 15 -13 15 -21 1z"/>
<path d="M4286 522 c-3 -5 1 -9 9 -9 8 0 12 4 9 9 -3 4 -7 8 -9 8 -2 0 -6 -4
-9 -8z"/>
<path d="M713 495 c0 -8 4 -12 9 -9 5 3 6 10 3 15 -9 13 -12 11 -12 -6z"/>
<path d="M4256 473 c-6 -14 -5 -15 5 -6 7 7 10 15 7 18 -3 3 -9 -2 -12 -12z"/>
<path d="M740 460 c-9 -6 -10 -10 -3 -10 6 0 15 5 18 10 8 12 4 12 -15 0z"/>
<path d="M4275 449 c-4 -6 -5 -12 -2 -15 2 -3 7 2 10 11 7 17 1 20 -8 4z"/>
<path d="M754 408 l-19 -23 23 19 c21 18 27 26 19 26 -2 0 -12 -10 -23 -22z"/>
<path d="M1816 418 c3 -5 10 -6 15 -3 13 9 11 12 -6 12 -8 0 -12 -4 -9 -9z"/>
<path d="M1757 409 c-9 -6 -15 -14 -12 -20 8 -12 -2 -12 -25 1 -15 8 -21 6
-29 -7 -7 -11 -14 -14 -18 -8 -11 14 -43 18 -43 5 0 -6 -5 -8 -12 -4 -7 4 -8
3 -4 -5 6 -9 11 -9 24 1 13 11 15 10 9 -4 -4 -12 1 -23 16 -33 19 -13 20 -17
7 -25 -9 -6 -10 -10 -3 -10 23 0 26 23 4 41 -23 19 -19 26 17 23 12 0 22 3 22
7 0 5 4 9 9 9 5 0 8 -7 7 -16 0 -9 9 -22 20 -30 20 -14 21 -13 19 8 -1 13 -4
24 -5 26 -8 8 -3 29 10 39 18 15 11 16 -13 2z m1 -58 c3 -8 -1 -12 -9 -9 -7 2
-15 10 -17 17 -3 8 1 12 9 9 7 -2 15 -10 17 -17z"/>
<path d="M4210 400 c0 -5 5 -10 10 -10 6 0 10 5 10 10 0 6 -4 10 -10 10 -5 0
-10 -4 -10 -10z"/>
<path d="M806 365 c-18 -14 -18 -14 1 -12 11 0 20 7 20 14 0 7 -1 13 -1 13 -1
0 -9 -7 -20 -15z"/>
<path d="M4269 363 c-13 -16 -12 -17 4 -4 9 7 17 15 17 17 0 8 -8 3 -21 -13z"/>
<path d="M4235 361 c-3 -5 -2 -12 3 -15 5 -3 9 1 9 9 0 17 -3 19 -12 6z"/>
<path d="M1792 344 c-7 -8 -8 -14 -3 -14 10 0 25 19 20 25 -2 1 -10 -3 -17
-11z"/>
<path d="M1447 343 c-4 -3 -7 -15 -7 -25 0 -11 -5 -16 -11 -13 -6 4 -8 13 -5
21 3 8 1 14 -4 14 -12 0 -14 -40 -2 -41 4 0 15 -2 24 -4 10 -2 21 2 25 7 4 7
1 8 -7 3 -10 -6 -12 -1 -8 19 6 28 5 30 -5 19z"/>
<path d="M1710 330 c14 -11 29 -20 34 -20 5 0 -3 9 -17 20 -14 11 -29 20 -34
20 -4 0 3 -9 17 -20z"/>
<path d="M2020 340 c0 -5 7 -7 15 -4 8 4 15 8 15 10 0 2 -7 4 -15 4 -8 0 -15
-4 -15 -10z"/>
<path d="M1881 320 c-31 -26 -17 -26 16 0 14 11 22 20 17 20 -5 -1 -20 -10
-33 -20z"/>
<path d="M2090 329 c0 -5 5 -7 10 -4 6 3 10 8 10 11 0 2 -4 4 -10 4 -5 0 -10
-5 -10 -11z"/>
<path d="M2116 325 c-3 -8 -1 -15 4 -15 6 0 10 7 10 15 0 8 -2 15 -4 15 -2 0
-6 -7 -10 -15z"/>
<path d="M4211 332 c-1 -7 -6 -10 -13 -6 -6 4 -8 3 -5 -4 8 -12 32 -10 44 3 4
4 3 5 -4 2 -6 -4 -14 -1 -16 5 -4 10 -6 10 -6 0z"/>
<path d="M836 321 c8 -8 43 -8 38 0 -2 4 -13 7 -24 6 -10 -1 -17 -3 -14 -6z"/>
<path d="M1327 323 c-4 -3 -7 -11 -7 -17 0 -6 5 -4 10 4 8 13 11 13 22 -2 9
-13 17 -15 28 -8 13 8 13 11 1 22 -9 8 -11 9 -7 1 3 -6 2 -14 -3 -17 -5 -3
-11 1 -15 9 -6 16 -18 19 -29 8z"/>
<path d="M1591 311 c-9 -16 -8 -18 11 -13 16 4 19 2 13 -8 -6 -9 -4 -11 5 -5
10 6 10 11 -3 20 -9 7 -14 15 -10 18 3 4 3 7 0 7 -3 0 -11 -9 -16 -19z"/>
<path d="M1799 313 c-13 -17 -13 -17 6 -3 11 8 22 16 24 17 2 2 0 3 -6 3 -6 0
-17 -8 -24 -17z"/>
<path d="M1955 320 c3 -5 11 -10 16 -10 6 0 7 5 4 10 -3 6 -11 10 -16 10 -6 0
-7 -4 -4 -10z"/>
<path d="M2030 320 c-8 -5 -10 -10 -5 -10 6 0 17 5 25 10 8 5 11 10 5 10 -5 0
-17 -5 -25 -10z"/>
<path d="M2160 314 c0 -8 -4 -13 -9 -10 -5 3 -16 -5 -25 -18 -13 -20 -13 -25
-1 -30 10 -3 12 0 8 11 -4 11 -2 14 5 9 8 -5 10 -1 5 10 -4 11 -3 15 5 10 6
-3 16 3 22 14 7 13 7 20 0 20 -5 0 -10 -7 -10 -16z"/>
<path d="M2234 318 c-5 -7 -3 -8 6 -3 10 6 12 4 7 -8 -4 -10 -2 -16 6 -14 7 1
11 -4 9 -11 -2 -10 2 -10 18 0 13 8 16 15 8 19 -7 4 -16 5 -20 3 -4 -3 -8 2
-8 10 0 19 -16 21 -26 4z"/>
<path d="M1910 310 c-13 -8 -12 -10 3 -10 9 0 17 5 17 10 0 12 -1 12 -20 0z"/>
<path d="M2072 312 c2 -8 7 -13 12 -12 5 1 13 -4 18 -12 8 -11 9 -11 6 0 -2 8
-7 13 -12 12 -5 -1 -13 4 -18 12 -8 11 -9 11 -6 0z"/>
<path d="M2192 312 c2 -8 8 -13 13 -12 5 1 13 -7 17 -17 7 -17 8 -17 5 0 -1
10 -6 17 -11 17 -5 -1 -13 4 -18 12 -8 11 -9 11 -6 0z"/>
<path d="M2395 310 c-3 -5 -1 -10 4 -10 6 0 11 5 11 10 0 6 -2 10 -4 10 -3 0
-8 -4 -11 -10z"/>
<path d="M1235 299 c-19 -9 -19 -9 2 -5 13 2 24 -2 27 -11 3 -8 10 -12 15 -9
5 4 12 1 14 -4 4 -7 5 -6 3 1 -1 6 -5 9 -8 7 -4 -2 -13 4 -20 13 -10 13 -18
15 -33 8z"/>
<path d="M1510 305 c0 -5 5 -17 10 -25 5 -8 10 -10 10 -5 0 6 -5 17 -10 25 -5
8 -10 11 -10 5z"/>
<path d="M1755 300 c-3 -6 1 -7 9 -4 18 7 21 14 7 14 -6 0 -13 -4 -16 -10z"/>
<path d="M1828 303 c7 -3 16 -2 19 1 4 3 -2 6 -13 5 -11 0 -14 -3 -6 -6z"/>
<path d="M1990 300 c0 -5 5 -10 10 -10 6 0 10 5 10 10 0 6 -4 10 -10 10 -5 0
-10 -4 -10 -10z"/>
<path d="M2467 303 c-4 -3 -7 -14 -7 -24 0 -12 -6 -16 -19 -12 -23 6 -33 -8
-19 -27 8 -12 9 -11 4 3 -5 14 -1 18 17 15 16 -2 23 3 25 20 4 25 17 29 26 7
3 -8 10 -15 16 -15 5 0 2 9 -7 20 -19 21 -26 24 -36 13z"/>
<path d="M893 285 c0 -8 4 -12 9 -9 5 3 6 10 3 15 -9 13 -12 11 -12 -6z"/>
<path d="M1710 285 c0 -8 2 -15 4 -15 2 0 6 7 10 15 3 8 1 15 -4 15 -6 0 -10
-7 -10 -15z"/>
<path d="M955 281 c-3 -5 -2 -12 3 -15 5 -3 9 1 9 9 0 17 -3 19 -12 6z"/>
<path d="M1030 280 c0 -5 5 -10 11 -10 5 0 7 5 4 10 -3 6 -8 10 -11 10 -2 0
-4 -4 -4 -10z"/>
<path d="M1130 281 c0 -6 4 -13 10 -16 6 -3 7 1 4 9 -7 18 -14 21 -14 7z"/>
<path d="M1160 276 c0 -8 4 -17 9 -20 5 -4 7 3 4 14 -6 23 -13 26 -13 6z"/>
<path d="M1199 288 c-8 -27 -5 -36 9 -30 10 4 12 7 4 10 -7 2 -10 8 -6 13 3 5
3 9 0 9 -3 0 -6 -1 -7 -2z"/>
<path d="M1375 280 c-3 -5 -1 -10 4 -10 6 0 11 5 11 10 0 6 -2 10 -4 10 -3 0
-8 -4 -11 -10z"/>
<path d="M1407 279 c7 -7 15 -10 18 -7 3 3 -2 9 -12 12 -14 6 -15 5 -6 -5z"/>
<path d="M1470 280 c0 -5 5 -10 11 -10 5 0 7 5 4 10 -3 6 -8 10 -11 10 -2 0
-4 -4 -4 -10z"/>
<path d="M1641 276 c-9 -11 -9 -16 0 -22 7 -4 9 -3 5 4 -3 6 2 15 11 21 10 6
13 11 7 11 -6 0 -17 -6 -23 -14z"/>
<path d="M1864 278 c9 -5 23 -5 32 0 12 6 7 9 -16 9 -23 0 -28 -3 -16 -9z"/>
<path d="M1925 280 c-3 -4 3 -7 12 -5 10 1 27 -2 38 -8 15 -7 17 -7 9 2 -14
15 -52 22 -59 11z"/>
<path d="M2020 278 c0 -4 7 -8 15 -8 8 0 15 4 15 8 0 5 -7 9 -15 9 -8 0 -15
-4 -15 -9z"/>
<path d="M2170 279 c0 -5 4 -8 9 -4 6 3 14 -3 20 -12 6 -10 11 -13 11 -8 0 13
-20 35 -32 35 -4 0 -8 -5 -8 -11z"/>
<path d="M2310 284 c0 -6 6 -17 14 -23 11 -9 16 -9 22 1 4 7 4 10 -1 6 -4 -4
-14 0 -21 10 -7 9 -14 12 -14 6z"/>
<path d="M2380 285 c0 -8 29 -12 39 -5 9 5 4 8 -13 8 -14 0 -26 -2 -26 -3z"/>
<path d="M4174 279 c-3 -6 -3 -13 0 -16 3 -4 6 -1 6 5 0 6 7 9 15 6 8 -4 15
-4 15 -1 0 11 -30 16 -36 6z"/>
<path d="M1066 265 c-11 -8 -15 -15 -9 -15 6 0 16 7 23 15 16 19 11 19 -14 0z"/>
<path d="M1230 276 c0 -2 8 -10 18 -17 15 -13 16 -12 3 4 -13 16 -21 21 -21
13z"/>
<path d="M1317 269 c7 -7 15 -10 18 -7 3 3 -2 9 -12 12 -14 6 -15 5 -6 -5z"/>
<path d="M1735 270 c-3 -6 1 -7 9 -4 18 7 21 14 7 14 -6 0 -13 -4 -16 -10z"/>
<path d="M986 258 c3 -4 9 -8 15 -8 5 0 9 4 9 8 0 5 -7 9 -15 9 -8 0 -12 -4
-9 -9z"/>
<path d="M1670 262 c0 -5 7 -9 15 -9 8 0 12 4 9 9 -3 4 -9 8 -15 8 -5 0 -9 -4
-9 -8z"/>
<path d="M1759 253 c-13 -16 -12 -17 4 -4 16 13 21 21 13 21 -2 0 -10 -8 -17
-17z"/>
<path d="M1793 255 c0 -8 4 -12 9 -9 4 3 8 9 8 15 0 5 -4 9 -8 9 -5 0 -9 -7
-9 -15z"/>
<path d="M2270 243 c-14 -15 -19 -23 -12 -19 7 4 21 2 30 -5 14 -11 15 -11 5
0 -13 16 -6 44 10 34 6 -3 7 -1 3 5 -9 15 -7 16 -36 -15z"/>
<path d="M2476 253 c-6 -14 -5 -15 5 -6 7 7 10 15 7 18 -3 3 -9 -2 -12 -12z"/>
<path d="M2590 261 c0 -6 4 -13 10 -16 6 -3 7 1 4 9 -7 18 -14 21 -14 7z"/>
<path d="M2073 245 c0 -8 4 -15 9 -15 4 0 8 4 8 9 0 6 -4 12 -8 15 -5 3 -9 -1
-9 -9z"/>
<path d="M2149 243 c-8 -9 -9 -14 -2 -10 6 4 13 1 16 -5 3 -7 4 -3 4 10 -1 26
-1 26 -18 5z"/>
<path d="M2217 245 c-4 -8 -3 -16 1 -19 4 -3 9 4 9 15 2 23 -3 25 -10 4z"/>
<path d="M2521 244 c0 -11 3 -14 6 -6 3 7 2 16 -1 19 -3 4 -6 -2 -5 -13z"/>
<path d="M2986 252 c-2 -4 2 -15 9 -25 11 -16 13 -15 13 8 0 24 -12 33 -22 17z"/>
<path d="M1115 240 c3 -5 8 -10 11 -10 2 0 4 5 4 10 0 6 -5 10 -11 10 -5 0 -7
-4 -4 -10z"/>
<path d="M1147 239 c7 -7 15 -10 18 -7 3 3 -2 9 -12 12 -14 6 -15 5 -6 -5z"/>
<path d="M1376 238 c3 -5 10 -6 15 -3 13 9 11 12 -6 12 -8 0 -12 -4 -9 -9z"/>
<path d="M1416 238 c3 -5 10 -6 15 -3 13 9 11 12 -6 12 -8 0 -12 -4 -9 -9z"/>
<path d="M1976 233 c-6 -14 -5 -15 5 -6 7 7 10 15 7 18 -3 3 -9 -2 -12 -12z"/>
<path d="M2393 235 c0 -8 4 -12 9 -9 5 3 6 10 3 15 -9 13 -12 11 -12 -6z"/>
<path d="M2560 230 c6 -11 13 -20 16 -20 2 0 0 9 -6 20 -6 11 -13 20 -16 20
-2 0 0 -9 6 -20z"/>
<path d="M2635 240 c-3 -5 -2 -10 4 -10 5 0 13 5 16 10 3 6 2 10 -4 10 -5 0
-13 -4 -16 -10z"/>
<path d="M2780 235 c0 -8 2 -15 4 -15 2 0 6 7 10 15 3 8 1 15 -4 15 -6 0 -10
-7 -10 -15z"/>
<path d="M2920 239 c0 -5 5 -7 10 -4 6 3 10 8 10 11 0 2 -4 4 -10 4 -5 0 -10
-5 -10 -11z"/>
<path d="M2186 223 c-6 -14 -5 -15 5 -6 7 7 10 15 7 18 -3 3 -9 -2 -12 -12z"/>
<path d="M2314 215 c0 -14 2 -22 5 -20 2 3 11 -1 20 -7 12 -10 12 -7 -2 8 -9
11 -14 23 -11 26 3 3 1 8 -3 11 -5 3 -9 -5 -9 -18z"/>
<path d="M2714 231 c4 -5 0 -11 -6 -14 -7 -3 -3 -4 8 -4 21 1 23 27 2 27 -5 0
-7 -4 -4 -9z"/>
<path d="M1450 219 c0 -5 5 -7 10 -4 6 3 10 8 10 11 0 2 -4 4 -10 4 -5 0 -10
-5 -10 -11z"/>
<path d="M1575 220 c3 -5 8 -10 11 -10 2 0 4 5 4 10 0 6 -5 10 -11 10 -5 0 -7
-4 -4 -10z"/>
<path d="M2347 213 c3 -7 6 -13 8 -13 1 0 7 6 13 13 8 10 6 13 -7 13 -11 0
-17 -6 -14 -13z"/>
<path d="M2659 228 c-7 -23 -4 -35 7 -35 9 0 11 4 4 12 -5 7 -7 15 -3 18 3 4
3 7 0 7 -4 0 -7 -1 -8 -2z"/>
<path d="M2756 221 c-3 -4 3 -16 13 -25 14 -13 18 -14 18 -2 0 8 -5 14 -11 13
-6 -1 -10 4 -8 11 2 14 -4 16 -12 3z"/>
<path d="M2830 220 c0 -6 7 -10 15 -10 8 0 15 2 15 4 0 2 -7 6 -15 10 -8 3
-15 1 -15 -4z"/>
<path d="M2015 209 c-4 -6 -5 -12 -2 -15 2 -3 7 2 10 11 7 17 1 20 -8 4z"/>
<path d="M2050 216 c0 -2 8 -10 18 -17 15 -13 16 -12 3 4 -13 16 -21 21 -21
13z"/>
<path d="M2094 209 c-3 -6 -2 -15 3 -20 5 -5 9 -1 9 11 0 23 -2 24 -12 9z"/>
<path d="M2410 210 c-9 -6 -10 -10 -3 -10 6 0 15 5 18 10 8 12 4 12 -15 0z"/>
<path d="M2489 203 c-13 -16 -12 -17 4 -4 9 7 17 15 17 17 0 8 -8 3 -21 -13z"/>
<path d="M3143 213 c-18 -7 -16 -20 2 -20 8 0 11 5 8 10 -3 5 0 8 7 5 7 -2 14
-12 16 -22 1 -10 5 -21 8 -24 9 -8 2 30 -7 46 -9 13 -14 14 -34 5z"/>
<path d="M1830 201 c0 -6 4 -13 10 -16 6 -3 7 1 4 9 -7 18 -14 21 -14 7z"/>
<path d="M2206 198 c3 -5 10 -6 15 -3 13 9 11 12 -6 12 -8 0 -12 -4 -9 -9z"/>
<path d="M2253 193 c0 -9 4 -10 14 -2 7 6 13 12 13 14 0 1 -6 2 -13 2 -8 0
-14 -6 -14 -14z"/>
<path d="M2606 202 c-3 -5 1 -9 9 -9 8 0 12 4 9 9 -3 4 -7 8 -9 8 -2 0 -6 -4
-9 -8z"/>
<path d="M3015 201 c-3 -5 0 -13 6 -17 7 -4 9 -3 5 4 -3 5 0 13 6 15 9 4 10 6
1 6 -6 1 -14 -3 -18 -8z"/>
<path d="M3050 206 c0 -2 7 -7 16 -10 8 -3 12 -2 9 4 -6 10 -25 14 -25 6z"/>
<path d="M3250 201 c0 -5 7 -12 16 -15 14 -5 15 -4 4 9 -14 17 -20 19 -20 6z"/>
<path d="M1776 182 c-2 -4 -1 -14 4 -22 7 -11 9 -9 7 8 -1 24 -3 26 -11 14z"/>
<path d="M2840 175 c-7 -9 -11 -17 -9 -20 3 -2 10 5 17 15 14 24 10 26 -8 5z"/>
<path d="M3113 170 c-1 -11 2 -22 6 -24 4 -3 7 4 6 14 -2 27 -10 33 -12 10z"/>
<path d="M1955 171 c-3 -5 -2 -12 3 -15 5 -3 9 1 9 9 0 17 -3 19 -12 6z"/>
<path d="M2033 165 c0 -8 4 -12 9 -9 5 3 6 10 3 15 -9 13 -12 11 -12 -6z"/>
<path d="M3082 160 c-9 -15 -9 -21 1 -26 6 -4 9 -4 5 1 -4 4 -3 14 4 22 6 7 9
15 7 18 -3 2 -10 -4 -17 -15z"/>
<path d="M3244 168 c3 -15 26 -23 26 -8 0 6 -4 9 -9 6 -5 -4 -12 -1 -14 4 -3
6 -4 5 -3 -2z"/>
<path d="M2360 160 c-9 -6 -10 -10 -3 -10 6 0 15 5 18 10 8 12 4 12 -15 0z"/>
<path d="M2695 160 c3 -5 8 -10 11 -10 2 0 4 5 4 10 0 6 -5 10 -11 10 -5 0 -7
-4 -4 -10z"/>
<path d="M2786 158 c3 -5 10 -6 15 -3 13 9 11 12 -6 12 -8 0 -12 -4 -9 -9z"/>
<path d="M3314 141 c0 -16 3 -27 6 -25 7 8 7 54 0 54 -4 0 -7 -13 -6 -29z"/>
<path d="M3350 160 c-11 -7 -11 -10 -2 -10 7 0 11 -4 8 -8 -2 -4 4 -8 15 -8
18 0 18 2 5 12 -9 6 -13 14 -9 17 9 10 0 8 -17 -3z"/>
<path d="M4087 159 c7 -7 15 -10 18 -7 3 3 -2 9 -12 12 -14 6 -15 5 -6 -5z"/>
<path d="M2086 142 c-3 -5 1 -9 9 -9 8 0 12 4 9 9 -3 4 -7 8 -9 8 -2 0 -6 -4
-9 -8z"/>
<path d="M2205 140 c-3 -6 1 -7 9 -4 18 7 21 14 7 14 -6 0 -13 -4 -16 -10z"/>
<path d="M2415 140 c-3 -5 -1 -10 4 -10 6 0 11 5 11 10 0 6 -2 10 -4 10 -3 0
-8 -4 -11 -10z"/>
<path d="M2890 140 c0 -5 5 -10 11 -10 5 0 7 5 4 10 -3 6 -8 10 -11 10 -2 0
-4 -4 -4 -10z"/>
<path d="M3419 148 c-5 -20 -4 -50 2 -53 4 -3 6 6 4 20 -2 19 2 25 16 25 12 0
16 -5 13 -14 -3 -8 -1 -16 4 -20 5 -3 8 5 7 17 -1 14 -9 23 -23 25 -12 2 -22
2 -23 0z"/>
<path d="M2835 120 c3 -5 8 -10 11 -10 2 0 4 5 4 10 0 6 -5 10 -11 10 -5 0 -7
-4 -4 -10z"/>
<path d="M3235 120 c3 -5 8 -10 11 -10 2 0 4 5 4 10 0 6 -5 10 -11 10 -5 0 -7
-4 -4 -10z"/>
<path d="M3270 121 c0 -6 4 -13 10 -16 6 -3 7 1 4 9 -7 18 -14 21 -14 7z"/>
<path d="M3587 107 c-3 -7 5 -12 19 -12 29 0 29 1 5 14 -14 8 -20 7 -24 -2z"/>
<path d="M3380 80 c-9 -6 -10 -10 -3 -10 6 0 15 5 18 10 8 12 4 12 -15 0z"/>
<path d="M4030 79 c0 -5 5 -7 10 -4 6 3 10 8 10 11 0 2 -4 4 -10 4 -5 0 -10
-5 -10 -11z"/>
<path d="M3695 71 c-3 -5 -2 -12 3 -15 5 -3 9 1 9 9 0 17 -3 19 -12 6z"/>
<path d="M3946 62 c-3 -5 1 -9 9 -9 8 0 12 4 9 9 -3 4 -7 8 -9 8 -2 0 -6 -4
-9 -8z"/>
<path d="M3771 47 c2 -1 13 -9 24 -17 19 -14 19 -14 6 3 -7 9 -18 17 -24 17
-6 0 -8 -1 -6 -3z"/>
</g>
</svg>
